<svg xmlns="http://www.w3.org/2000/svg" viewBox="0 0 128 128">
  <rect fill="#282C34" width="100%" height="100%"/>
  <path fill="#ECEFF0" d="M49.83 103.67l-5.66-5.66L70.1 75.22 44.17 49.29l5.66-5.66 25.67 25.67z"/>
  <path fill="#009393" d="M62.83 13.33l5.66 5.66L51.9 44.78l25.93 25.93-5.66 5.66L46.24 50.44z"/>
  <path fill="#D82323" d="M78.17 29.67l-5.66-5.66L77.77 18l25.93 25.93-5.66 5.66L78.17 29.67z"/>
  <path fill="#F7931A" d="M13.33 62.83l5.66-5.66 25.93 25.93-25.93 25.93-5.66-5.66L38.24 68.49z"/>
  <path fill="#2E79CC" d="M75.22 57.9l-25.93-25.93 5.66-5.66L81.88 52.24l-5.66 5.66z"/>
  <path fill="#C6A750" d="M44.78 76.1L18.85 50.17l5.66-5.66L51.44 70.44l-6.66 5.66z"/>
  <path fill="#9132D2" d="M62.83 114.67l5.66-5.66-25.93-25.93 25.93-25.93-5.66-5.66L38.24 68.49z"/>
  <path fill="#E6007A" d="M57.9 52.78l25.93-25.93 5.66 5.66L63.56 58.44l-5.66-5.66z"/>
  <path fill="#8D4CF7" d="M76.1 83.22l25.93 25.93-5.66 5.66L70.44 82.56l6.66-5.66z"/>
  <path fill="#8DC351" d="M114.67 62.83l-5.66 5.66-25.93-25.93 25.93-25.93 5.66 5.66-20.27 20.27z"/>
</svg>


